<mxfile host="app.diagrams.net" modified="2023-05-05T10:00:09.510Z" agent="Mozilla/5.0 (X11; Linux x86_64; rv:109.0) Gecko/20100101 Firefox/112.0" etag="sBRQAFZ3i3blct5CeVv3" version="21.2.7" type="device">
  <diagram name="Page-1" id="cuG3LdxtrJZm0yC-Opcy">
    <mxGraphModel dx="1366" dy="719" grid="1" gridSize="10" guides="1" tooltips="1" connect="1" arrows="1" fold="1" page="1" pageScale="1" pageWidth="850" pageHeight="1100" math="0" shadow="0">
      <root>
        <mxCell id="0" />
        <mxCell id="1" parent="0" />
        <mxCell id="sXYJL_sKXcRxMsRIRv8j-2" value="" style="ellipse;html=1;shape=startState;fillColor=#000000;strokeColor=#ff0000;" vertex="1" parent="1">
          <mxGeometry x="390" y="40" width="30" height="30" as="geometry" />
        </mxCell>
        <mxCell id="sXYJL_sKXcRxMsRIRv8j-3" value="" style="edgeStyle=orthogonalEdgeStyle;html=1;verticalAlign=bottom;endArrow=open;endSize=8;strokeColor=#ff0000;rounded=0;entryX=0.496;entryY=0.521;entryDx=0;entryDy=0;entryPerimeter=0;" edge="1" source="sXYJL_sKXcRxMsRIRv8j-2" parent="1" target="sXYJL_sKXcRxMsRIRv8j-13">
          <mxGeometry relative="1" as="geometry">
            <mxPoint x="400" y="140" as="targetPoint" />
          </mxGeometry>
        </mxCell>
        <mxCell id="sXYJL_sKXcRxMsRIRv8j-4" value="" style="ellipse;html=1;shape=endState;fillColor=#000000;strokeColor=#ff0000;" vertex="1" parent="1">
          <mxGeometry x="390" y="535" width="30" height="30" as="geometry" />
        </mxCell>
        <mxCell id="sXYJL_sKXcRxMsRIRv8j-31" style="edgeStyle=orthogonalEdgeStyle;rounded=0;orthogonalLoop=1;jettySize=auto;html=1;" edge="1" parent="1" source="sXYJL_sKXcRxMsRIRv8j-5" target="sXYJL_sKXcRxMsRIRv8j-23">
          <mxGeometry relative="1" as="geometry" />
        </mxCell>
        <mxCell id="sXYJL_sKXcRxMsRIRv8j-5" value="Compter le nombre de notes avec le coefficient" style="rounded=1;whiteSpace=wrap;html=1;" vertex="1" parent="1">
          <mxGeometry x="290" y="220" width="120" height="50" as="geometry" />
        </mxCell>
        <mxCell id="sXYJL_sKXcRxMsRIRv8j-6" value="Calculer le coefficient de chaque note" style="rounded=1;whiteSpace=wrap;html=1;" vertex="1" parent="1">
          <mxGeometry x="420" y="220" width="120" height="30" as="geometry" />
        </mxCell>
        <mxCell id="sXYJL_sKXcRxMsRIRv8j-8" value="Calculer la somme de chaque note" style="rounded=1;whiteSpace=wrap;html=1;" vertex="1" parent="1">
          <mxGeometry x="420" y="290" width="120" height="30" as="geometry" />
        </mxCell>
        <mxCell id="sXYJL_sKXcRxMsRIRv8j-9" value="" style="edgeStyle=orthogonalEdgeStyle;html=1;verticalAlign=bottom;endArrow=open;endSize=8;strokeColor=#ff0000;rounded=0;" edge="1" parent="1" source="sXYJL_sKXcRxMsRIRv8j-6" target="sXYJL_sKXcRxMsRIRv8j-8">
          <mxGeometry relative="1" as="geometry">
            <mxPoint x="415" y="290" as="targetPoint" />
            <mxPoint x="415" y="240" as="sourcePoint" />
            <Array as="points">
              <mxPoint x="450" y="280" />
              <mxPoint x="450" y="280" />
            </Array>
          </mxGeometry>
        </mxCell>
        <mxCell id="sXYJL_sKXcRxMsRIRv8j-10" value="Diviser la somme par le nombre de notes" style="rounded=1;whiteSpace=wrap;html=1;" vertex="1" parent="1">
          <mxGeometry x="345" y="430" width="120" height="30" as="geometry" />
        </mxCell>
        <mxCell id="sXYJL_sKXcRxMsRIRv8j-12" value="" style="edgeStyle=orthogonalEdgeStyle;html=1;verticalAlign=bottom;endArrow=open;endSize=8;strokeColor=#ff0000;rounded=0;" edge="1" parent="1" source="sXYJL_sKXcRxMsRIRv8j-10" target="sXYJL_sKXcRxMsRIRv8j-4">
          <mxGeometry relative="1" as="geometry">
            <mxPoint x="415" y="470" as="targetPoint" />
            <mxPoint x="415" y="420" as="sourcePoint" />
          </mxGeometry>
        </mxCell>
        <mxCell id="sXYJL_sKXcRxMsRIRv8j-13" value="" style="shape=line;html=1;strokeWidth=6;strokeColor=#ff0000;" vertex="1" parent="1">
          <mxGeometry x="305" y="140" width="200" height="10" as="geometry" />
        </mxCell>
        <mxCell id="sXYJL_sKXcRxMsRIRv8j-15" value="" style="edgeStyle=orthogonalEdgeStyle;html=1;verticalAlign=bottom;endArrow=open;endSize=8;strokeColor=#ff0000;rounded=0;exitX=0.75;exitY=0.5;exitDx=0;exitDy=0;exitPerimeter=0;" edge="1" parent="1" source="sXYJL_sKXcRxMsRIRv8j-13" target="sXYJL_sKXcRxMsRIRv8j-6">
          <mxGeometry relative="1" as="geometry">
            <mxPoint x="455" y="245" as="targetPoint" />
            <mxPoint x="415" y="160" as="sourcePoint" />
            <Array as="points">
              <mxPoint x="455" y="230" />
              <mxPoint x="480" y="230" />
            </Array>
          </mxGeometry>
        </mxCell>
        <mxCell id="sXYJL_sKXcRxMsRIRv8j-16" value="" style="edgeStyle=orthogonalEdgeStyle;html=1;verticalAlign=bottom;endArrow=open;endSize=8;strokeColor=#ff0000;rounded=0;exitX=0.25;exitY=0.5;exitDx=0;exitDy=0;exitPerimeter=0;" edge="1" parent="1" source="sXYJL_sKXcRxMsRIRv8j-13" target="sXYJL_sKXcRxMsRIRv8j-5">
          <mxGeometry relative="1" as="geometry">
            <mxPoint x="345" y="245" as="targetPoint" />
            <mxPoint x="375" y="150" as="sourcePoint" />
            <Array as="points">
              <mxPoint x="345" y="145" />
            </Array>
          </mxGeometry>
        </mxCell>
        <mxCell id="sXYJL_sKXcRxMsRIRv8j-18" value="" style="shape=line;html=1;strokeWidth=6;strokeColor=#ff0000;" vertex="1" parent="1">
          <mxGeometry x="305" y="350" width="200" height="10" as="geometry" />
        </mxCell>
        <mxCell id="sXYJL_sKXcRxMsRIRv8j-19" value="" style="edgeStyle=orthogonalEdgeStyle;html=1;verticalAlign=bottom;endArrow=open;endSize=8;strokeColor=#ff0000;rounded=0;" edge="1" source="sXYJL_sKXcRxMsRIRv8j-18" parent="1">
          <mxGeometry relative="1" as="geometry">
            <mxPoint x="405" y="430" as="targetPoint" />
          </mxGeometry>
        </mxCell>
        <mxCell id="sXYJL_sKXcRxMsRIRv8j-20" value="" style="edgeStyle=orthogonalEdgeStyle;html=1;verticalAlign=bottom;endArrow=open;endSize=8;strokeColor=#ff0000;rounded=0;" edge="1" parent="1" source="sXYJL_sKXcRxMsRIRv8j-8">
          <mxGeometry relative="1" as="geometry">
            <mxPoint x="450" y="355" as="targetPoint" />
            <mxPoint x="465" y="155" as="sourcePoint" />
            <Array as="points">
              <mxPoint x="450" y="355" />
            </Array>
          </mxGeometry>
        </mxCell>
        <mxCell id="sXYJL_sKXcRxMsRIRv8j-23" value="nombre == 0?" style="rhombus;whiteSpace=wrap;html=1;fontColor=#000000;fillColor=#ffffc0;strokeColor=#ff0000;" vertex="1" parent="1">
          <mxGeometry x="305" y="290" width="80" height="40" as="geometry" />
        </mxCell>
        <mxCell id="sXYJL_sKXcRxMsRIRv8j-24" value="no" style="edgeStyle=orthogonalEdgeStyle;html=1;align=left;verticalAlign=bottom;endArrow=open;endSize=8;strokeColor=#ff0000;rounded=0;entryX=0.25;entryY=0.5;entryDx=0;entryDy=0;entryPerimeter=0;" edge="1" source="sXYJL_sKXcRxMsRIRv8j-23" parent="1" target="sXYJL_sKXcRxMsRIRv8j-18">
          <mxGeometry x="-1" relative="1" as="geometry">
            <mxPoint x="480" y="300" as="targetPoint" />
          </mxGeometry>
        </mxCell>
        <mxCell id="sXYJL_sKXcRxMsRIRv8j-25" value="yes" style="edgeStyle=orthogonalEdgeStyle;html=1;align=left;verticalAlign=top;endArrow=open;endSize=8;strokeColor=#ff0000;rounded=0;" edge="1" source="sXYJL_sKXcRxMsRIRv8j-23" parent="1" target="sXYJL_sKXcRxMsRIRv8j-4">
          <mxGeometry x="-1" relative="1" as="geometry">
            <mxPoint x="240" y="310" as="targetPoint" />
            <Array as="points">
              <mxPoint x="250" y="310" />
              <mxPoint x="250" y="550" />
            </Array>
          </mxGeometry>
        </mxCell>
        <mxCell id="sXYJL_sKXcRxMsRIRv8j-33" value="Use case : Panifier un cours" style="swimlane;childLayout=stackLayout;resizeParent=1;resizeParentMax=0;startSize=20;html=1;" vertex="1" parent="1">
          <mxGeometry x="790" y="55" width="540" height="480" as="geometry" />
        </mxCell>
        <mxCell id="sXYJL_sKXcRxMsRIRv8j-34" value="Directeur" style="swimlane;startSize=20;html=1;" vertex="1" parent="sXYJL_sKXcRxMsRIRv8j-33">
          <mxGeometry y="20" width="270" height="460" as="geometry" />
        </mxCell>
        <mxCell id="sXYJL_sKXcRxMsRIRv8j-37" value="" style="ellipse;html=1;shape=startState;fillColor=#000000;strokeColor=#ff0000;" vertex="1" parent="sXYJL_sKXcRxMsRIRv8j-34">
          <mxGeometry x="45" y="35" width="30" height="30" as="geometry" />
        </mxCell>
        <mxCell id="sXYJL_sKXcRxMsRIRv8j-63" style="edgeStyle=orthogonalEdgeStyle;rounded=0;orthogonalLoop=1;jettySize=auto;html=1;" edge="1" parent="sXYJL_sKXcRxMsRIRv8j-34" source="sXYJL_sKXcRxMsRIRv8j-40" target="sXYJL_sKXcRxMsRIRv8j-60">
          <mxGeometry relative="1" as="geometry" />
        </mxCell>
        <mxCell id="sXYJL_sKXcRxMsRIRv8j-40" value="Selectionner une classe" style="rounded=1;whiteSpace=wrap;html=1;arcSize=40;fontColor=#000000;fillColor=#ffffc0;strokeColor=#ff0000;" vertex="1" parent="sXYJL_sKXcRxMsRIRv8j-34">
          <mxGeometry x="30" y="95" width="120" height="40" as="geometry" />
        </mxCell>
        <mxCell id="sXYJL_sKXcRxMsRIRv8j-47" value="Selectionner des dates" style="rounded=1;whiteSpace=wrap;html=1;arcSize=40;fontColor=#000000;fillColor=#ffffc0;strokeColor=#ff0000;" vertex="1" parent="sXYJL_sKXcRxMsRIRv8j-34">
          <mxGeometry x="40" y="235" width="120" height="40" as="geometry" />
        </mxCell>
        <mxCell id="sXYJL_sKXcRxMsRIRv8j-60" value="Existe ?" style="rhombus;whiteSpace=wrap;html=1;fontColor=#000000;fillColor=#ffffc0;strokeColor=#ff0000;" vertex="1" parent="sXYJL_sKXcRxMsRIRv8j-34">
          <mxGeometry x="50" y="165" width="80" height="40" as="geometry" />
        </mxCell>
        <mxCell id="sXYJL_sKXcRxMsRIRv8j-61" value="no" style="edgeStyle=orthogonalEdgeStyle;html=1;align=left;verticalAlign=bottom;endArrow=open;endSize=8;strokeColor=#ff0000;rounded=0;entryX=0;entryY=0.5;entryDx=0;entryDy=0;" edge="1" source="sXYJL_sKXcRxMsRIRv8j-60" parent="sXYJL_sKXcRxMsRIRv8j-34" target="sXYJL_sKXcRxMsRIRv8j-40">
          <mxGeometry x="-1" relative="1" as="geometry">
            <mxPoint x="230" y="165" as="targetPoint" />
            <Array as="points">
              <mxPoint x="10" y="185" />
              <mxPoint x="10" y="115" />
            </Array>
          </mxGeometry>
        </mxCell>
        <mxCell id="sXYJL_sKXcRxMsRIRv8j-36" value="Système" style="swimlane;startSize=20;html=1;" vertex="1" parent="sXYJL_sKXcRxMsRIRv8j-33">
          <mxGeometry x="270" y="20" width="270" height="460" as="geometry" />
        </mxCell>
        <mxCell id="sXYJL_sKXcRxMsRIRv8j-58" style="edgeStyle=orthogonalEdgeStyle;rounded=0;orthogonalLoop=1;jettySize=auto;html=1;entryX=0.5;entryY=0;entryDx=0;entryDy=0;" edge="1" parent="sXYJL_sKXcRxMsRIRv8j-36" source="sXYJL_sKXcRxMsRIRv8j-39" target="sXYJL_sKXcRxMsRIRv8j-55">
          <mxGeometry relative="1" as="geometry" />
        </mxCell>
        <mxCell id="sXYJL_sKXcRxMsRIRv8j-39" value="afficher la liste des classes" style="rounded=1;whiteSpace=wrap;html=1;arcSize=40;fontColor=#000000;fillColor=#ffffc0;strokeColor=#ff0000;" vertex="1" parent="sXYJL_sKXcRxMsRIRv8j-36">
          <mxGeometry x="75" y="30" width="120" height="40" as="geometry" />
        </mxCell>
        <mxCell id="sXYJL_sKXcRxMsRIRv8j-46" style="edgeStyle=orthogonalEdgeStyle;rounded=0;orthogonalLoop=1;jettySize=auto;html=1;" edge="1" parent="sXYJL_sKXcRxMsRIRv8j-36" source="sXYJL_sKXcRxMsRIRv8j-43" target="sXYJL_sKXcRxMsRIRv8j-44">
          <mxGeometry relative="1" as="geometry" />
        </mxCell>
        <mxCell id="sXYJL_sKXcRxMsRIRv8j-43" value="Traiter la séléction" style="rounded=1;whiteSpace=wrap;html=1;arcSize=40;fontColor=#000000;fillColor=#ffffc0;strokeColor=#ff0000;" vertex="1" parent="sXYJL_sKXcRxMsRIRv8j-36">
          <mxGeometry x="75" y="165" width="120" height="40" as="geometry" />
        </mxCell>
        <mxCell id="sXYJL_sKXcRxMsRIRv8j-44" value="Afficher le planing de la classe" style="rounded=1;whiteSpace=wrap;html=1;arcSize=40;fontColor=#000000;fillColor=#ffffc0;strokeColor=#ff0000;" vertex="1" parent="sXYJL_sKXcRxMsRIRv8j-36">
          <mxGeometry x="75" y="235" width="120" height="40" as="geometry" />
        </mxCell>
        <mxCell id="sXYJL_sKXcRxMsRIRv8j-52" value="Afficher les actions" style="rounded=1;whiteSpace=wrap;html=1;arcSize=40;fontColor=#000000;fillColor=#ffffc0;strokeColor=#ff0000;" vertex="1" parent="sXYJL_sKXcRxMsRIRv8j-36">
          <mxGeometry x="90" y="325" width="120" height="40" as="geometry" />
        </mxCell>
        <mxCell id="sXYJL_sKXcRxMsRIRv8j-53" value="" style="edgeStyle=orthogonalEdgeStyle;html=1;verticalAlign=bottom;endArrow=open;endSize=8;strokeColor=#ff0000;rounded=0;" edge="1" source="sXYJL_sKXcRxMsRIRv8j-52" parent="sXYJL_sKXcRxMsRIRv8j-36" target="sXYJL_sKXcRxMsRIRv8j-54">
          <mxGeometry relative="1" as="geometry">
            <mxPoint x="150" y="425" as="targetPoint" />
          </mxGeometry>
        </mxCell>
        <mxCell id="sXYJL_sKXcRxMsRIRv8j-54" value="" style="ellipse;html=1;shape=endState;fillColor=#000000;strokeColor=#ff0000;" vertex="1" parent="sXYJL_sKXcRxMsRIRv8j-36">
          <mxGeometry x="135" y="425" width="30" height="30" as="geometry" />
        </mxCell>
        <mxCell id="sXYJL_sKXcRxMsRIRv8j-55" value="classe dispo ?" style="rhombus;whiteSpace=wrap;html=1;fontColor=#000000;fillColor=#ffffc0;strokeColor=#ff0000;" vertex="1" parent="sXYJL_sKXcRxMsRIRv8j-36">
          <mxGeometry x="95" y="95" width="80" height="40" as="geometry" />
        </mxCell>
        <mxCell id="sXYJL_sKXcRxMsRIRv8j-38" value="" style="edgeStyle=orthogonalEdgeStyle;html=1;verticalAlign=bottom;endArrow=open;endSize=8;strokeColor=#ff0000;rounded=0;" edge="1" source="sXYJL_sKXcRxMsRIRv8j-37" parent="sXYJL_sKXcRxMsRIRv8j-33" target="sXYJL_sKXcRxMsRIRv8j-39">
          <mxGeometry relative="1" as="geometry">
            <mxPoint x="160" y="70" as="targetPoint" />
          </mxGeometry>
        </mxCell>
        <mxCell id="sXYJL_sKXcRxMsRIRv8j-45" value="" style="edgeStyle=orthogonalEdgeStyle;html=1;verticalAlign=bottom;endArrow=open;endSize=8;strokeColor=#ff0000;rounded=0;" edge="1" source="sXYJL_sKXcRxMsRIRv8j-44" parent="sXYJL_sKXcRxMsRIRv8j-33" target="sXYJL_sKXcRxMsRIRv8j-47">
          <mxGeometry relative="1" as="geometry">
            <mxPoint x="375" y="345" as="targetPoint" />
          </mxGeometry>
        </mxCell>
        <mxCell id="sXYJL_sKXcRxMsRIRv8j-48" value="" style="edgeStyle=orthogonalEdgeStyle;html=1;verticalAlign=bottom;endArrow=open;endSize=8;strokeColor=#ff0000;rounded=0;entryX=0;entryY=0.5;entryDx=0;entryDy=0;" edge="1" source="sXYJL_sKXcRxMsRIRv8j-47" parent="sXYJL_sKXcRxMsRIRv8j-33" target="sXYJL_sKXcRxMsRIRv8j-52">
          <mxGeometry relative="1" as="geometry">
            <mxPoint x="135" y="365" as="targetPoint" />
            <Array as="points">
              <mxPoint x="100" y="365" />
            </Array>
          </mxGeometry>
        </mxCell>
        <mxCell id="sXYJL_sKXcRxMsRIRv8j-57" value="yes" style="edgeStyle=orthogonalEdgeStyle;html=1;align=left;verticalAlign=top;endArrow=open;endSize=8;strokeColor=#ff0000;rounded=0;" edge="1" source="sXYJL_sKXcRxMsRIRv8j-55" parent="sXYJL_sKXcRxMsRIRv8j-33" target="sXYJL_sKXcRxMsRIRv8j-40">
          <mxGeometry x="-1" relative="1" as="geometry">
            <mxPoint x="370" y="205" as="targetPoint" />
          </mxGeometry>
        </mxCell>
        <mxCell id="sXYJL_sKXcRxMsRIRv8j-62" value="yes" style="edgeStyle=orthogonalEdgeStyle;html=1;align=left;verticalAlign=top;endArrow=open;endSize=8;strokeColor=#ff0000;rounded=0;entryX=0;entryY=0.5;entryDx=0;entryDy=0;" edge="1" source="sXYJL_sKXcRxMsRIRv8j-60" parent="sXYJL_sKXcRxMsRIRv8j-33" target="sXYJL_sKXcRxMsRIRv8j-43">
          <mxGeometry x="-1" relative="1" as="geometry">
            <mxPoint x="90" y="265" as="targetPoint" />
          </mxGeometry>
        </mxCell>
        <mxCell id="sXYJL_sKXcRxMsRIRv8j-59" value="UseCase : Gérer les classes" style="shape=umlFrame;whiteSpace=wrap;html=1;pointerEvents=0;width=170;height=30;" vertex="1" parent="1">
          <mxGeometry x="1360" y="170" width="190" height="40" as="geometry" />
        </mxCell>
        <mxCell id="sXYJL_sKXcRxMsRIRv8j-56" value="no" style="edgeStyle=orthogonalEdgeStyle;html=1;align=left;verticalAlign=bottom;endArrow=open;endSize=8;strokeColor=#ff0000;rounded=0;" edge="1" source="sXYJL_sKXcRxMsRIRv8j-55" parent="1" target="sXYJL_sKXcRxMsRIRv8j-59">
          <mxGeometry x="-1" relative="1" as="geometry">
            <mxPoint x="1310" y="190" as="targetPoint" />
          </mxGeometry>
        </mxCell>
      </root>
    </mxGraphModel>
  </diagram>
</mxfile>
